# xmcd
#
# Track frame offsets:
#   150
#   18396
#   34474
#   53059
#   67806
#   84904
#   104332
#   119038
#   140646
#   159071
#   175948
#   190930
#   206453
#   224654
#   241382
#   257716
#   283106
#   298316
#
# Disc length: 4198 seconds
#
# Revision: 0
# Processed by: cddbd v1.5.2PL0 Copyright (c) Steve Scherf et al.
# Submitted via: GXTranscoder 2.0.1939
#
DISCID=13106412
DTITLE=Russische Schlager - Russische Schlager
DYEAR=1900
DGENRE=Folk
TTITLE0=Unbekannt
TTITLE1=Unbekannt
TTITLE2=Unbekannt
TTITLE3=Unbekannt
TTITLE4=Unbekannt
TTITLE5=Unbekannt
TTITLE6=Unbekannt
TTITLE7=Unbekannt
TTITLE8=Unbekannt
TTITLE9=Unbekannt
TTITLE10=Unbekannt
TTITLE11=Unbekannt
TTITLE12=Unbekannt
TTITLE13=Unbekannt
TTITLE14=Unbekannt
TTITLE15=Unbekannt
TTITLE16=Unbekannt
TTITLE17=Unbekannt
EXTD=
EXTT0=
EXTT1=
EXTT2=
EXTT3=
EXTT4=
EXTT5=
EXTT6=
EXTT7=
EXTT8=
EXTT9=
EXTT10=
EXTT11=
EXTT12=
EXTT13=
EXTT14=
EXTT15=
EXTT16=
EXTT17=
PLAYORDER=
